<?xml version="1.0" encoding="UTF-8" standalone="no"?>
<svg
   xmlns:dc="http://purl.org/dc/elements/1.1/"
   xmlns:cc="http://creativecommons.org/ns#"
   xmlns:rdf="http://www.w3.org/1999/02/22-rdf-syntax-ns#"
   xmlns:svg="http://www.w3.org/2000/svg"
   xmlns="http://www.w3.org/2000/svg"
   xmlns:sodipodi="http://sodipodi.sourceforge.net/DTD/sodipodi-0.dtd"
   xmlns:inkscape="http://www.inkscape.org/namespaces/inkscape"
   width="2176"
   height="768"
   viewBox="0 0 575.7333 203.19999"
   version="1.1"
   id="svg8"
   inkscape:version="1.0.1 (c497b03c, 2020-09-10)"
   sodipodi:docname="odassey_lg.svg">
  <defs
     id="defs2" />
  <sodipodi:namedview
     id="base"
     pagecolor="#000000"
     bordercolor="#666666"
     borderopacity="1.0"
     inkscape:pageopacity="0"
     inkscape:pageshadow="2"
     inkscape:zoom="0.28861823"
     inkscape:cx="1691.1537"
     inkscape:cy="786.16032"
     inkscape:document-units="px"
     inkscape:current-layer="layer1"
     inkscape:document-rotation="0"
     showgrid="false"
     inkscape:window-width="1680"
     inkscape:window-height="919"
     inkscape:window-x="1806"
     inkscape:window-y="25"
     inkscape:window-maximized="0"
     units="px" />
  <metadata
     id="metadata5">
    <rdf:RDF>
      <cc:Work
         rdf:about="">
        <dc:format>image/svg+xml</dc:format>
        <dc:type
           rdf:resource="http://purl.org/dc/dcmitype/StillImage" />
        <dc:title />
      </cc:Work>
    </rdf:RDF>
  </metadata>
  <g
     inkscape:label="Ebene 1"
     inkscape:groupmode="layer"
     id="layer1">
    <g
       aria-label="Odassey"
       id="text835"
       style="font-style:normal;font-weight:normal;font-size:2.92773px;line-height:1.25;font-family:sans-serif;fill:#ffffff;fill-opacity:1;stroke:none;stroke-width:0.073193">
      <path
         d="m 137.12973,56.466223 q 0,29.082417 -20.10395,52.114127 -20.103956,22.83653 -44.69714,28.49687 -7.221809,1.75665 -13.858065,1.75665 -18.152112,0 -30.058337,-13.46769 -11.906224,-13.4677 -11.906224,-33.96202 0,-27.130577 18.542481,-44.892321 11.71104,-11.320673 28.692048,-15.419537 5.074785,-0.97592 9.368833,-0.97592 9.7592,0 14.248432,4.684416 4.489232,4.489232 2.537392,4.489232 l -3.122944,-1.561472 q -4.098864,-1.561472 -7.221808,-1.561472 -2.92776,0 -5.074784,0.585552 -23.422081,5.465152 -37.865697,28.106497 -11.125489,17.566561 -11.125489,35.328305 0,24.398 17.761745,31.61981 5.85552,2.53739 12.68696,2.53739 7.026624,0 14.248433,-1.75665 13.077328,-2.92777 26.545024,-16.20028 13.4677,-13.46769 22.05579,-31.619806 8.5881,-18.152113 8.5881,-33.962017 0,-20.689505 -12.29659,-30.839073 -10.34476,-8.197729 -27.13058,-8.197729 -2.537392,0 -5.465152,0.195184 Q 60.812783,13.330558 42.465487,26.60307 28.99779,35.971902 19.824142,49.829967 10.650494,63.688031 9.6745738,77.350911 q -0.195184,3.122944 -1.9518401,1.561472 -1.561472,-1.756656 -1.561472,-5.074784 0,-14.053248 8.1977283,-27.520945 8.392912,-13.66288 22.250977,-23.617264 9.7592,-7.026624 22.250976,-11.125489 12.686961,-4.2940477 24.202817,-4.4892317 24.00763,0 39.0368,13.0773287 15.02917,13.077328 15.02917,36.304225 z"
         style="font-style:normal;font-variant:normal;font-weight:normal;font-stretch:normal;font-size:195.184px;font-family:Allura;-inkscape-font-specification:'Allura, Normal';font-variant-ligatures:normal;font-variant-caps:normal;font-variant-numeric:normal;font-variant-east-asian:normal;fill:#ffffff;fill-opacity:1;stroke-width:0.073193"
         id="path866" />
      <path
         d="m 151.19823,86.719744 q 8.78328,-7.807361 18.15212,-13.272513 9.36883,-5.465152 14.83398,-6.83144 5.46515,-1.366288 10.73512,-1.366288 5.26997,0 9.95439,3.513312 26.7402,-62.0685137 51.1382,-62.0685137 8.19773,0 11.12549,4.6844157 1.36629,2.342209 1.36629,4.098865 0,4.8796 -4.29405,12.491776 -4.09886,7.416992 -12.88214,16.395456 -8.78328,8.978465 -25.17874,22.250977 -16.39545,13.077328 -18.15211,14.638801 -6.24589,14.443616 -9.7592,27.911308 -3.51331,13.4677 -3.51331,20.10396 0,6.63625 2.34221,10.53993 1.1711,2.5374 3.51331,2.92776 2.34221,0.58556 3.90368,-0.58555 1.75665,-0.97592 2.53739,-1.75665 0.97592,-0.78074 2.14702,-1.56148 1.36629,-0.58555 1.95184,-0.19518 0.58556,0.39037 -0.19518,2.14702 -1.56147,1.95184 -2.92776,3.31813 -3.12294,2.14703 -7.41699,2.14703 -4.09887,0 -5.46515,-0.19519 -9.36884,-1.56147 -9.36884,-13.66288 0,-11.71104 3.12295,-21.66542 4.29405,-13.662884 7.80736,-22.641348 -31.22944,36.304228 -44.30677,36.304228 -3.12295,0 -6.83144,-1.95184 -3.51331,-1.75666 -6.05071,-5.07479 -2.53739,-3.51331 -2.53739,-7.41699 0,-3.90368 1.75666,-7.41699 3.90368,-8.19773 12.49177,-15.809906 z m 52.11413,-14.833985 q -2.3422,-1.171104 -8.19772,-1.171104 -5.85553,0 -15.22436,4.8796 -9.17365,4.684416 -17.37137,11.906225 -6.83144,6.441072 -12.10141,14.6388 -5.07479,8.00254 -5.07479,11.71104 0,7.22181 4.09887,7.22181 4.09886,0 12.49177,-6.63626 21.66543,-17.761742 38.64644,-35.913855 z M 260.50128,22.69939 q 2.53739,-4.684416 2.53739,-7.80736 0,-3.318129 -2.92776,-3.318129 -2.73258,0 -7.41699,3.513313 Q 231.22368,31.48267 213.8523,69.933919 226.53926,61.736191 240.39732,48.073311 254.25539,34.41043 260.50128,22.69939 Z"
         style="font-style:normal;font-variant:normal;font-weight:normal;font-stretch:normal;font-size:195.184px;font-family:Allura;-inkscape-font-specification:'Allura, Normal';font-variant-ligatures:normal;font-variant-caps:normal;font-variant-numeric:normal;font-variant-east-asian:normal;fill:#ffffff;fill-opacity:1;stroke-width:0.073193"
         id="path868" />
      <path
         d="m 225.56334,124.39026 q -3.12295,0 -6.83144,-1.95184 -3.51331,-1.75666 -6.05071,-5.07479 -2.53739,-3.51331 -2.53739,-7.41699 0,-3.90368 1.75666,-7.41699 3.90368,-8.19773 12.49177,-15.809906 8.78328,-7.807361 18.15212,-13.272513 9.36883,-5.465152 14.83398,-6.83144 5.46515,-1.366288 10.53994,-1.366288 5.26997,0 8.97846,2.732576 3.7085,2.537392 3.7085,5.465152 0,0.97592 -0.19519,1.171104 -0.19518,0.195184 -0.97592,-0.195184 -2.3422,-3.708496 -9.7592,-3.708496 -7.2218,0 -16.59064,4.8796 -9.17365,4.684416 -17.37137,11.906225 -6.83144,6.441072 -12.10141,14.6388 -5.07479,8.00254 -5.07479,11.71104 0,7.22181 4.09887,7.22181 4.09886,0 12.49177,-6.63626 13.85807,-11.71104 18.93285,-17.17619 17.95693,-19.323217 19.32322,-19.323217 2.34221,0 5.66034,1.366288 3.31812,1.366289 2.14702,3.318129 -9.95438,14.053248 -11.71104,28.30168 -0.19518,1.75666 -0.19518,4.48923 0,2.73258 1.56147,4.48923 2.92776,3.12295 8.00254,0.39037 5.07479,-2.73257 14.05325,-10.9303 9.17365,-8.19773 14.6388,-16.00509 0.78074,-0.97592 1.75666,-0.390368 0.97592,0.390368 0.97592,0.780736 0,2.92776 -9.36884,12.882142 -9.17364,9.7592 -14.05324,13.27251 -9.17365,6.83144 -16.98101,6.83144 -7.41699,0 -9.95439,-7.41699 -0.58555,-2.34221 -0.58555,-5.26997 0,-8.78328 3.7085,-18.542476 -0.78074,0.390368 -7.22181,7.807356 -6.44107,7.417 -15.02917,14.24844 -8.39291,6.83144 -15.22435,6.83144 z"
         style="font-style:normal;font-variant:normal;font-weight:normal;font-stretch:normal;font-size:195.184px;font-family:Allura;-inkscape-font-specification:'Allura, Normal';font-variant-ligatures:normal;font-variant-caps:normal;font-variant-numeric:normal;font-variant-east-asian:normal;fill:#ffffff;fill-opacity:1;stroke-width:0.073193"
         id="path870" />
      <path
         d="m 306.96116,124.19507 q -2.53739,2.92776 -1.1711,4.68442 1.56147,1.75665 3.31813,1.75665 1.95184,0 3.90368,-0.58555 8.39291,-2.53739 16.20027,-9.95438 8.00254,-7.61218 8.00254,-15.41954 0,-4.29405 -9.56401,-9.36883 -4.48923,-2.342208 -5.07479,-2.732576 -5.26996,-3.513312 -6.63625,-7.026624 -2.73258,4.684416 -8.78328,13.467696 -1.36629,1.561474 -2.5374,0.780736 -1.1711,-0.97592 -0.19518,-2.537392 8.00254,-10.930304 10.53994,-18.347297 1.36629,-10.73512 15.61472,-19.323216 14.24843,-8.588096 25.95947,-8.588096 7.41699,0 10.34475,2.732576 3.12295,2.537392 3.12295,5.074784 0,2.537392 -1.56148,5.85552 -1.36628,3.318128 -5.85552,6.245888 -1.1711,0.780736 -1.95184,-0.390368 -0.39036,-1.171104 1.56148,-3.122944 2.14702,-2.147024 2.73257,-5.660336 0.58555,-3.513312 -3.12294,-4.294048 -0.58555,0 -1.17111,0 -7.61217,0 -19.12803,5.660336 -11.32067,5.660336 -17.76174,14.6388 -2.53739,3.318129 -2.53739,6.831441 0,3.318128 4.68441,6.050704 1.95184,1.171104 6.63626,3.708496 4.68441,2.537392 6.63625,3.708496 1.95184,1.171104 4.68442,3.708494 2.73258,2.53739 2.92776,4.68442 0.97592,5.85552 -5.46515,12.88214 -9.17365,10.14957 -27.32576,14.24844 -4.09887,0.97592 -8.39292,0.97592 -4.09886,0 -5.66033,-3.12295 -0.58555,-0.78074 -0.58555,-2.53739 0,-1.56147 3.12294,-5.26997 2.92776,-2.92776 9.36883,-5.66034 0.58555,-0.19518 0.97592,0.19519 0.39037,0.39037 0.19519,0.97592 -0.19519,0.58555 -2.14703,1.36629 -1.75665,0.78073 -3.90368,3.70849 z"
         style="font-style:normal;font-variant:normal;font-weight:normal;font-stretch:normal;font-size:195.184px;font-family:Allura;-inkscape-font-specification:'Allura, Normal';font-variant-ligatures:normal;font-variant-caps:normal;font-variant-numeric:normal;font-variant-east-asian:normal;fill:#ffffff;fill-opacity:1;stroke-width:0.073193"
         id="path872" />
      <path
         d="m 364.90641,124.19507 q -2.53739,2.92776 -1.1711,4.68442 1.56147,1.75665 3.31813,1.75665 1.95184,0 3.90368,-0.58555 8.39291,-2.53739 16.20027,-9.95438 8.00255,-7.61218 8.00255,-15.41954 0,-4.29405 -9.56402,-9.36883 -4.48923,-2.342208 -5.07479,-2.732576 -5.26996,-3.513312 -6.63625,-7.026624 -2.73258,4.684416 -8.78328,13.467696 -1.36629,1.561474 -2.53739,0.780736 -1.17111,-0.97592 -0.19519,-2.537392 8.00255,-10.930304 10.53994,-18.347297 1.36629,-10.73512 15.61472,-19.323216 14.24843,-8.588096 25.95947,-8.588096 7.41699,0 10.34475,2.732576 3.12295,2.537392 3.12295,5.074784 0,2.537392 -1.56147,5.85552 -1.36629,3.318128 -5.85552,6.245888 -1.17111,0.780736 -1.95184,-0.390368 -0.39037,-1.171104 1.56147,-3.122944 2.14702,-2.147024 2.73257,-5.660336 0.58556,-3.513312 -3.12294,-4.294048 -0.58555,0 -1.1711,0 -7.61218,0 -19.12804,5.660336 -11.32067,5.660336 -17.76174,14.6388 -2.53739,3.318129 -2.53739,6.831441 0,3.318128 4.68441,6.050704 1.95184,1.171104 6.63626,3.708496 4.68442,2.537392 6.63626,3.708496 1.95184,1.171104 4.68441,3.708494 2.73258,2.53739 2.92776,4.68442 0.97592,5.85552 -5.46515,12.88214 -9.17365,10.14957 -27.32576,14.24844 -4.09887,0.97592 -8.39291,0.97592 -4.09887,0 -5.66034,-3.12295 -0.58555,-0.78074 -0.58555,-2.53739 0,-1.56147 3.12294,-5.26997 2.92776,-2.92776 9.36883,-5.66034 0.58556,-0.19518 0.97592,0.19519 0.39037,0.39037 0.19519,0.97592 -0.19519,0.58555 -2.14703,1.36629 -1.75665,0.78073 -3.90368,3.70849 z"
         style="font-style:normal;font-variant:normal;font-weight:normal;font-stretch:normal;font-size:195.184px;font-family:Allura;-inkscape-font-specification:'Allura, Normal';font-variant-ligatures:normal;font-variant-caps:normal;font-variant-numeric:normal;font-variant-east-asian:normal;fill:#ffffff;fill-opacity:1;stroke-width:0.073193"
         id="path874" />
      <path
         d="m 465.98733,65.444687 q 10.53994,0 10.53994,10.149568 0,5.269969 -2.92776,8.588097 -4.8796,7.221808 -15.80991,12.68696 -10.9303,5.269968 -18.54248,5.855518 -2.73257,0.19519 -2.92776,-1.56147 -0.19518,-0.78074 0.39037,-0.97592 0.78074,-0.195184 1.1711,-0.195184 4.48924,-0.390368 11.51586,-4.294048 13.07733,-7.026624 19.12803,-14.443616 2.5374,-3.513313 2.5374,-6.636257 0,-3.318128 -3.12295,-3.318128 -2.53739,0 -6.83144,2.147024 -9.17365,4.294048 -19.32322,15.029169 -10.14956,10.539936 -13.27251,20.6895 -0.97592,3.12295 -0.97592,6.24589 0,2.92776 2.53739,5.66034 2.5374,2.73257 7.80736,2.73257 5.85552,0 13.4677,-3.12294 22.05579,-8.97846 33.96202,-27.130576 1.1711,-1.561472 2.14702,-0.585552 0.78074,0.390368 0.78074,0.97592 0,0.585552 -0.58555,1.366288 -5.85552,9.7592 -14.83399,17.37138 -17.37138,14.83398 -33.76683,14.83398 -14.05325,0 -19.71359,-8.39291 -2.14702,-3.31813 -2.14702,-8.00255 0,-4.68441 2.53739,-11.125484 4.8796,-11.125488 20.88469,-22.836529 16.00509,-11.71104 25.37392,-11.71104 z"
         style="font-style:normal;font-variant:normal;font-weight:normal;font-stretch:normal;font-size:195.184px;font-family:Allura;-inkscape-font-specification:'Allura, Normal';font-variant-ligatures:normal;font-variant-caps:normal;font-variant-numeric:normal;font-variant-east-asian:normal;fill:#ffffff;fill-opacity:1;stroke-width:0.073193"
         id="path876" />
      <path
         d="m 477.96371,196.60834 q -1.56147,0 -3.90368,-0.58555 -9.95438,-2.5374 -9.95438,-10.53994 0,-7.80736 10.34475,-19.71358 10.14957,-11.90623 43.13567,-33.76684 18.34729,-37.475326 23.22689,-52.504495 -2.3422,2.732577 -9.17365,11.906225 -6.83144,8.97846 -12.1014,15.41954 -5.26997,6.24588 -12.68696,11.90622 -7.417,5.66034 -13.66288,5.66034 -6.24589,0 -9.7592,-2.73258 -3.31813,-2.92776 -3.7085,-6.0507 -0.39037,-3.12295 -0.39037,-5.26997 0,-7.22181 3.90368,-14.443618 5.85552,-11.906224 15.80991,-20.494321 3.70849,-3.513312 6.44107,-3.513312 2.92776,0 5.26997,1.756656 2.53739,2.732576 1.56147,4.684416 -7.41699,4.294049 -16.98101,16.590641 -5.07478,6.636258 -7.02662,16.785828 -0.19519,1.36628 -0.19519,3.51331 0,1.95184 1.56147,3.31813 1.75666,1.1711 3.51332,1.1711 6.0507,0 12.68696,-6.44107 6.63625,-6.44107 12.68696,-13.467698 6.0507,-7.221808 13.66288,-17.176192 7.80736,-9.954385 10.14957,-13.077329 2.53739,-3.122944 5.07478,-3.122944 3.12294,0 6.44107,1.756656 3.31813,1.756656 2.73258,2.732576 -0.39037,0.97592 -9.95439,22.250977 -9.36883,21.079874 -13.66288,30.253524 4.68442,-2.5374 15.80991,-11.90623 11.32067,-9.56401 19.12803,-19.323214 1.95184,-2.342208 2.53739,-0.390368 0.19519,0.390368 0.19519,1.366288 0,0.780736 -1.17111,2.342208 -6.0507,8.002546 -19.32321,20.103956 -13.27252,12.1014 -21.07988,16.39545 -16.59064,34.1572 -22.25097,42.94048 -14.6388,21.66543 -28.88724,21.66543 z m 35.91386,-57.18891 q -23.42208,17.56656 -33.57165,27.71612 -9.95438,10.14957 -9.95438,17.37138 0,7.41699 5.07478,7.41699 3.90368,0 8.97847,-4.09886 5.07478,-3.90368 9.7592,-10.53994 4.68441,-6.63625 7.02662,-11.51585 2.53739,-4.68442 6.83144,-14.05325 4.29405,-9.17365 5.85552,-12.29659 z"
         style="font-style:normal;font-variant:normal;font-weight:normal;font-stretch:normal;font-size:195.184px;font-family:Allura;-inkscape-font-specification:'Allura, Normal';font-variant-ligatures:normal;font-variant-caps:normal;font-variant-numeric:normal;font-variant-east-asian:normal;fill:#ffffff;fill-opacity:1;stroke-width:0.073193"
         id="path878" />
    </g>
    <g
       id="g927"
       transform="matrix(0.27663578,0,0,0.27663578,-2.6206324,-1.9146742)">
      <path
         id="rect884-5"
         style="fill:#b3c4ce;fill-opacity:1;stroke:none;stroke-width:0.295939;stroke-linejoin:round;stroke-dasharray:0.0295939, 0.0295939"
         inkscape:label="rect884"
         d="M 336.67547,334.84864 446.41782,132.45599 246.62258,246.85892 291.64902,290.85378 Z" />
      <path
         id="rect884"
         style="fill:#ff0000;fill-opacity:1;stroke:none;stroke-width:0.295939;stroke-linejoin:round;stroke-dasharray:0.0295939, 0.0295939"
         inkscape:label="rect884"
         d="M 246.62258,246.85892 135.10719,448.28008 335.89932,335.63602 c 0.76508,-88.76657 0.67294,-88.817 -89.27674,-88.7771 z"
         sodipodi:nodetypes="cccc" />
      <ellipse
         style="fill:#ffffff;fill-opacity:1;stroke:none;stroke-width:0.372644;stroke-linejoin:round;stroke-dasharray:0.0372644, 0.0372644"
         id="path918"
         cx="290.4198"
         cy="290.82425"
         rx="20.979162"
         ry="20.574671" />
    </g>
  </g>
</svg>
